<svg width="424" height="269" viewBox="0 0 424 269" fill="none" xmlns="http://www.w3.org/2000/svg">
<g filter="url(#filter0_dd_36438_199755)">
<rect x="12" y="10" width="399.542" height="243.638" rx="7.11351" fill="white"/>
<rect x="12" y="45.6206" width="399.542" height="19.0222" fill="white"/>
<rect x="12" y="121.075" width="399.542" height="19.0222" fill="white"/>
<rect x="12" y="197.164" width="399.542" height="19.0222" fill="white"/>
<rect opacity="0.7" x="12" y="102.053" width="399.542" height="19.0222" fill="#F1F6FB"/>
<rect x="12" y="26.5981" width="399.542" height="19.0222" fill="#E3EDF6"/>
<rect x="12" y="159.119" width="399.542" height="19.0222" fill="white"/>
<rect opacity="0.7" x="12" y="178.142" width="399.542" height="19.0222" fill="#F1F6FB"/>
<rect opacity="0.7" x="12" y="140.097" width="399.542" height="19.0222" fill="#F1F6FB"/>
<rect x="12" y="83.6648" width="399.542" height="19.0222" fill="white"/>
<path d="M12 235.208H411.542V247.117C411.542 251.046 408.357 254.23 404.429 254.23H19.1135C15.1848 254.23 12 251.046 12 247.117V235.208Z" fill="white"/>
<rect opacity="0.7" x="12" y="64.6426" width="399.542" height="19.0222" fill="#F1F6FB"/>
<rect opacity="0.7" x="12" y="216.186" width="399.542" height="19.0222" fill="#F1F6FB"/>
<path d="M12 17.1135C12 13.1848 15.1848 10 19.1135 10H404.429C408.357 10 411.542 13.1848 411.542 17.1135V26.5982H12V17.1135Z" fill="#091B36"/>
<path d="M26.1603 18.7408C26.1603 20.2337 25.0124 21.4311 23.6119 21.4311C22.2114 21.4311 21.0635 20.2337 21.0635 18.7408C21.0635 17.2479 22.2114 16.0506 23.6119 16.0506C25.0124 16.0506 26.1603 17.2479 26.1603 18.7408Z" fill="#F66058" stroke="white" stroke-width="0.291052"/>
<path d="M37.6095 18.7408C37.6095 20.2337 36.4616 21.4311 35.0611 21.4311C33.6606 21.4311 32.5127 20.2337 32.5127 18.7408C32.5127 17.2479 33.6606 16.0506 35.0611 16.0506C36.4616 16.0506 37.6095 17.2479 37.6095 18.7408Z" fill="#F9BD2E" stroke="white" stroke-width="0.291052"/>
<path d="M49.0626 18.7408C49.0626 20.2337 47.9147 21.4311 46.5142 21.4311C45.1137 21.4311 43.9658 20.2337 43.9658 18.7408C43.9658 17.2479 45.1137 16.0506 46.5142 16.0506C47.9147 16.0506 49.0626 17.2479 49.0626 18.7408Z" fill="#3CC840" stroke="white" stroke-width="0.291052"/>
<path d="M38.4806 38.1189V34.8467H38.0206V38.1189H38.4806ZM42.4168 38.1189V36.7531C42.4168 36.2646 42.2556 35.8236 41.6533 35.8236C41.3356 35.8236 41.089 35.9848 40.9372 36.2694C40.8329 35.9754 40.6005 35.8236 40.2686 35.8236C39.9698 35.8236 39.7232 36.0133 39.6189 36.222H39.6046L39.6094 35.8663H39.1541V38.1189H39.6094V36.9475C39.6094 36.5444 39.7896 36.1982 40.15 36.1982C40.4772 36.1982 40.5578 36.4733 40.5578 36.8053V38.1189H41.0131V36.9475C41.0131 36.5444 41.1933 36.1982 41.5537 36.1982C41.9189 36.1982 41.9663 36.5444 41.9663 36.8053V38.1189H42.4168ZM44.7757 38.1189V36.81C44.7757 36.1556 44.4485 35.8236 43.7893 35.8236C43.4147 35.8236 43.1111 35.9564 42.9452 36.0512L43.0827 36.3547C43.1586 36.3073 43.4336 36.1603 43.7608 36.1603C44.0881 36.1603 44.3204 36.331 44.3204 36.6725V36.7626L43.7182 36.7863C43.1965 36.81 42.8361 37.0329 42.8361 37.4739C42.8361 37.9102 43.1965 38.1711 43.6138 38.1711C44.0264 38.1711 44.2398 37.9292 44.3299 37.8344L44.3347 38.1189H44.7757ZM44.3252 37.0376V37.5214C44.2398 37.6494 44.0454 37.8486 43.7514 37.8486C43.4526 37.8486 43.2866 37.6731 43.2866 37.4597C43.2866 37.2463 43.4336 37.0898 43.7988 37.0708L44.3252 37.0376ZM47.5414 37.6447V35.8663H47.0909L47.0956 36.222H47.0814C46.9486 36.0133 46.6878 35.8236 46.2941 35.8236C45.7156 35.8236 45.2081 36.2409 45.2081 36.957C45.2081 37.6731 45.7156 38.0904 46.2941 38.0904C46.6735 38.0904 46.9296 37.915 47.0814 37.6873H47.0909V37.8012C47.0909 38.3323 46.8775 38.6785 46.3036 38.6785C45.9669 38.6785 45.616 38.4983 45.4974 38.394L45.284 38.7117C45.3504 38.7591 45.7345 39.0484 46.2894 39.0484C46.849 39.0484 47.1288 38.8208 47.2948 38.6168C47.4608 38.4177 47.5414 38.1426 47.5414 37.6447ZM47.1051 36.957C47.1051 37.3838 46.8537 37.7205 46.389 37.7205C45.929 37.7205 45.6729 37.3838 45.6729 36.957C45.6729 36.5302 45.929 36.1888 46.389 36.1888C46.8537 36.1888 47.1051 36.5302 47.1051 36.957ZM50.2292 36.9001C50.2292 36.2694 49.7882 35.8236 49.1622 35.8236C48.5362 35.8236 48.0193 36.2789 48.0193 36.9902C48.0193 37.7063 48.4793 38.1711 49.148 38.1711C49.8214 38.1711 50.1107 37.8391 50.1391 37.8154L49.9494 37.5546C49.8972 37.5878 49.6269 37.8154 49.2049 37.8154C48.7875 37.8154 48.503 37.5451 48.4793 37.0993H50.215C50.215 37.0993 50.2292 36.9855 50.2292 36.9001ZM49.7977 36.7958H48.484C48.4983 36.5255 48.6974 36.1508 49.148 36.1508C49.6032 36.1508 49.7929 36.5444 49.7977 36.7958Z" fill="#303B45"/>
<path d="M21.4565 35.5916V35.3196H20.9696L21.1144 34.4028H20.8336L20.6889 35.3196H20.1054L20.2458 34.4028H19.9695L19.8247 35.3196H19.3027V35.5916H19.7808L19.6799 36.254H19.1623V36.5303H19.6361L19.4913 37.4428H19.7721L19.9168 36.5303H20.5002L20.3599 37.4428H20.6406L20.781 36.5303H21.3162V36.254H20.8249L20.9257 35.5916H21.4565ZM20.645 35.5916L20.5441 36.254H19.9563L20.0616 35.5916H20.645Z" fill="#303B45"/>
<path d="M91.3667 35.1881C91.3667 34.8752 91.2529 34.6617 91.049 34.4863C90.8498 34.3156 90.5747 34.2539 90.257 34.2539H89.337V37.5261H89.797V36.1224H90.257C90.8545 36.1224 91.3667 35.8473 91.3667 35.1881ZM90.8925 35.1881C90.8925 35.6007 90.5842 35.7477 90.2191 35.7477H89.797V34.6286H90.2191C90.5842 34.6286 90.8925 34.7803 90.8925 35.1881ZM93.0656 35.2688C93.0656 35.2688 92.9803 35.2308 92.8285 35.2308C92.5867 35.2308 92.3827 35.3636 92.2737 35.6197H92.2594L92.2642 35.2735H91.8089V37.5261H92.2642V36.4022C92.2642 36.075 92.3638 35.6434 92.7716 35.6434C92.8949 35.6434 92.9755 35.6719 93.0182 35.6908H93.0372L93.0656 35.2688ZM95.6079 36.4069C95.6079 35.7098 95.0863 35.2308 94.4176 35.2308C93.7442 35.2308 93.2225 35.7098 93.2225 36.4069C93.2225 37.1088 93.7442 37.5783 94.4176 37.5783C95.0863 37.5783 95.6079 37.1088 95.6079 36.4069ZM95.1479 36.3927C95.1479 36.8385 94.8681 37.1894 94.4176 37.1894C93.9623 37.1894 93.6825 36.8385 93.6825 36.3927C93.6825 35.9517 93.9623 35.6007 94.4176 35.6007C94.8681 35.6007 95.1479 35.9517 95.1479 36.3927ZM98.265 37.5261V34.2539H97.8145V35.6244H97.805C97.6485 35.3921 97.3829 35.2308 97.0178 35.2308C96.3586 35.2308 95.9318 35.7335 95.9318 36.3974C95.9318 37.0661 96.3586 37.5783 97.0272 37.5783C97.3545 37.5783 97.6343 37.4408 97.8192 37.1657H97.8287V37.5261H98.265ZM97.8287 36.3927C97.8287 36.8432 97.5631 37.1894 97.1126 37.1894C96.6621 37.1894 96.3965 36.8432 96.3965 36.3927C96.3965 35.9422 96.6621 35.6007 97.1126 35.6007C97.5631 35.6007 97.8287 35.9422 97.8287 36.3927ZM100.829 37.5261V35.2688H100.374V36.4781C100.374 36.8575 100.213 37.1989 99.8142 37.1989C99.4111 37.1989 99.3447 36.9096 99.3447 36.6014V35.2688H98.8942V36.6203C98.8942 37.1799 99.0602 37.5783 99.6862 37.5783C100.004 37.5783 100.26 37.4218 100.383 37.2036L100.388 37.5261H100.829ZM103.343 37.2368L103.182 36.9049C103.182 36.9049 102.935 37.1894 102.494 37.1894C102.058 37.1894 101.764 36.8622 101.764 36.388C101.764 35.9137 102.096 35.6102 102.494 35.6102C102.893 35.6102 103.092 35.8094 103.168 35.8853L103.329 35.5533C103.305 35.5249 103.059 35.2308 102.456 35.2308C101.859 35.2308 101.304 35.6766 101.304 36.4022C101.304 37.123 101.835 37.5783 102.442 37.5783C103.044 37.5783 103.277 37.3032 103.343 37.2368ZM104.802 37.5024L104.773 37.1373C104.773 37.1373 104.674 37.1894 104.541 37.1894C104.413 37.1894 104.351 37.1467 104.309 37.0756C104.257 36.9808 104.252 36.8527 104.252 36.663V35.6434H104.792V35.2783H104.252V34.6048H103.797V35.2783H103.465V35.6434H103.797V36.6725C103.797 37.1135 103.825 37.5783 104.389 37.5783C104.546 37.5783 104.683 37.5546 104.802 37.5024ZM107.219 37.5024L107.191 37.1373C107.191 37.1373 107.091 37.1894 106.959 37.1894C106.831 37.1894 106.769 37.1467 106.726 37.0756C106.674 36.9808 106.669 36.8527 106.669 36.663V35.6434H107.21V35.2783H106.669V34.6048H106.214V35.2783H105.882V35.6434H106.214V36.6725C106.214 37.1135 106.243 37.5783 106.807 37.5783C106.963 37.5783 107.101 37.5546 107.219 37.5024ZM109.565 35.2735L109.095 35.2688L108.431 37.0234L107.748 35.2735L107.274 35.2688L108.189 37.4787L108.08 37.7775C108.019 37.9434 107.971 38.043 107.786 38.043C107.673 38.043 107.549 37.9909 107.549 37.9909L107.459 38.3608C107.459 38.3608 107.635 38.4414 107.886 38.4414C108.137 38.4414 108.322 38.3086 108.479 37.9197L109.565 35.2735ZM112.218 36.3974C112.218 35.7288 111.796 35.2308 111.132 35.2308C110.8 35.2308 110.53 35.3636 110.331 35.6292H110.321V35.2735H109.885V38.4082H110.34V37.1704L110.345 37.1752C110.506 37.4265 110.767 37.5783 111.123 37.5783C111.791 37.5783 112.218 37.0661 112.218 36.3974ZM111.753 36.3927C111.753 36.8432 111.488 37.1894 111.037 37.1894C110.587 37.1894 110.321 36.8432 110.321 36.3927C110.321 35.9422 110.587 35.6007 111.037 35.6007C111.488 35.6007 111.753 35.9422 111.753 36.3927ZM114.749 36.3073C114.749 35.6766 114.308 35.2308 113.682 35.2308C113.056 35.2308 112.539 35.6861 112.539 36.3974C112.539 37.1135 112.999 37.5783 113.668 37.5783C114.341 37.5783 114.631 37.2463 114.659 37.2226L114.469 36.9618C114.417 36.995 114.147 37.2226 113.725 37.2226C113.307 37.2226 113.023 36.9523 112.999 36.5065H114.735C114.735 36.5065 114.749 36.3927 114.749 36.3073ZM114.318 36.203H113.004C113.018 35.9327 113.217 35.5581 113.668 35.5581C114.123 35.5581 114.313 35.9517 114.318 36.203Z" fill="#303B45"/>
<path d="M193.914 36.4828C193.914 35.4679 193.164 34.8467 192.183 34.8467H191.196V38.1189H192.183C193.164 38.1189 193.914 37.4976 193.914 36.4828ZM193.444 36.4828C193.444 37.2368 192.923 37.7205 192.183 37.7205H191.656V35.2403H192.183C192.923 35.2403 193.444 35.7288 193.444 36.4828ZM196.458 36.9001C196.458 36.2694 196.017 35.8236 195.391 35.8236C194.765 35.8236 194.248 36.2789 194.248 36.9902C194.248 37.7063 194.708 38.1711 195.377 38.1711C196.05 38.1711 196.34 37.8391 196.368 37.8154L196.178 37.5546C196.126 37.5878 195.856 37.8154 195.434 37.8154C195.017 37.8154 194.732 37.5451 194.708 37.0993H196.444C196.444 37.0993 196.458 36.9855 196.458 36.9001ZM196.027 36.7958H194.713C194.727 36.5255 194.926 36.1508 195.377 36.1508C195.832 36.1508 196.022 36.5444 196.027 36.7958ZM198.428 37.4597C198.428 37.1657 198.238 36.9855 197.987 36.8811C197.892 36.8432 197.806 36.8148 197.683 36.7721C197.46 36.7009 197.242 36.6203 197.242 36.4354C197.242 36.2504 197.384 36.1556 197.603 36.1556C197.821 36.1556 198.039 36.2599 198.172 36.3974L198.361 36.1176C198.219 35.9659 197.991 35.8236 197.593 35.8236C197.195 35.8236 196.834 36.0512 196.834 36.4686C196.834 36.8954 197.166 37.0139 197.498 37.1277C197.65 37.1799 198.006 37.2558 198.006 37.5024C198.006 37.749 197.783 37.8249 197.574 37.8249C197.365 37.8249 197.1 37.7016 196.91 37.5024L196.692 37.768C196.882 38.0146 197.19 38.1711 197.569 38.1711C198.006 38.1711 198.428 37.9434 198.428 37.4597ZM200.761 37.8296L200.6 37.4976C200.6 37.4976 200.353 37.7822 199.912 37.7822C199.476 37.7822 199.182 37.455 199.182 36.9807C199.182 36.5065 199.514 36.203 199.912 36.203C200.311 36.203 200.51 36.4022 200.586 36.478L200.747 36.1461C200.723 36.1176 200.477 35.8236 199.874 35.8236C199.277 35.8236 198.722 36.2694 198.722 36.995C198.722 37.7158 199.253 38.1711 199.86 38.1711C200.462 38.1711 200.695 37.896 200.761 37.8296ZM202.404 35.8615C202.404 35.8615 202.319 35.8236 202.167 35.8236C201.925 35.8236 201.721 35.9564 201.612 36.2125H201.598L201.603 35.8663H201.148V38.1189H201.603V36.995C201.603 36.6677 201.703 36.2362 202.11 36.2362C202.234 36.2362 202.314 36.2646 202.357 36.2836H202.376L202.404 35.8615ZM203.277 35.1265C203.277 34.9652 203.154 34.8467 202.983 34.8467C202.807 34.8467 202.684 34.9652 202.684 35.1265C202.684 35.2877 202.807 35.4063 202.983 35.4063C203.154 35.4063 203.277 35.2877 203.277 35.1265ZM203.21 38.1189V35.8663H202.755V38.1189H203.21ZM206.209 36.9902C206.209 36.3215 205.787 35.8236 205.123 35.8236C204.791 35.8236 204.521 35.9564 204.322 36.222H204.312V35.8663H203.876V39.001H204.331V37.7632L204.336 37.768C204.497 38.0193 204.758 38.1711 205.114 38.1711C205.782 38.1711 206.209 37.6589 206.209 36.9902ZM205.744 36.9855C205.744 37.436 205.479 37.7822 205.028 37.7822C204.578 37.7822 204.312 37.436 204.312 36.9855C204.312 36.535 204.578 36.1935 205.028 36.1935C205.479 36.1935 205.744 36.535 205.744 36.9855ZM207.777 38.0952L207.749 37.73C207.749 37.73 207.649 37.7822 207.517 37.7822C207.389 37.7822 207.327 37.7395 207.284 37.6684C207.232 37.5735 207.227 37.4455 207.227 37.2558V36.2362H207.768V35.871H207.227V35.1976H206.772V35.871H206.44V36.2362H206.772V37.2653C206.772 37.7063 206.801 38.1711 207.365 38.1711C207.521 38.1711 207.659 38.1474 207.777 38.0952ZM208.695 35.1265C208.695 34.9652 208.572 34.8467 208.401 34.8467C208.226 34.8467 208.103 34.9652 208.103 35.1265C208.103 35.2877 208.226 35.4063 208.401 35.4063C208.572 35.4063 208.695 35.2877 208.695 35.1265ZM208.629 38.1189V35.8663H208.174V38.1189H208.629ZM211.509 36.9997C211.509 36.3026 210.987 35.8236 210.319 35.8236C209.645 35.8236 209.124 36.3026 209.124 36.9997C209.124 37.7016 209.645 38.1711 210.319 38.1711C210.987 38.1711 211.509 37.7016 211.509 36.9997ZM211.049 36.9855C211.049 37.4313 210.769 37.7822 210.319 37.7822C209.863 37.7822 209.584 37.4313 209.584 36.9855C209.584 36.5444 209.863 36.1935 210.319 36.1935C210.769 36.1935 211.049 36.5444 211.049 36.9855ZM213.943 38.1189V36.7863C213.943 36.2457 213.777 35.8236 213.137 35.8236C212.81 35.8236 212.568 35.9991 212.449 36.222H212.435L212.44 35.8663H211.985V38.1189H212.44V36.9855C212.44 36.5539 212.596 36.1982 213.018 36.1982C213.422 36.1982 213.488 36.4828 213.488 36.8622V38.1189H213.943Z" fill="#303B45"/>
<path d="M298.385 37.5261L297.45 36.0702C297.796 36.0038 298.195 35.7477 298.195 35.1739C298.195 34.5242 297.673 34.2539 297.09 34.2539H296.165V37.5261H296.625V36.1176H296.976L297.83 37.5261H298.385ZM297.721 35.1834C297.721 35.3826 297.659 35.5154 297.512 35.6244C297.365 35.7288 297.189 35.7383 296.962 35.7383H296.625V34.6286H296.962C297.189 34.6286 297.365 34.638 297.512 34.7471C297.659 34.8514 297.721 34.989 297.721 35.1834ZM300.619 37.5261V36.2172C300.619 35.5628 300.291 35.2308 299.632 35.2308C299.257 35.2308 298.954 35.3636 298.788 35.4585L298.926 35.762C299.001 35.7145 299.276 35.5675 299.604 35.5675C299.931 35.5675 300.163 35.7383 300.163 36.0797V36.1698L299.561 36.1935C299.039 36.2172 298.679 36.4401 298.679 36.8812C298.679 37.3175 299.039 37.5783 299.457 37.5783C299.869 37.5783 300.083 37.3364 300.173 37.2416L300.177 37.5261H300.619ZM300.168 36.4449V36.9286C300.083 37.0566 299.888 37.2558 299.594 37.2558C299.295 37.2558 299.129 37.0803 299.129 36.8669C299.129 36.6535 299.276 36.497 299.642 36.4781L300.168 36.4449ZM302.298 37.5024L302.27 37.1373C302.27 37.1373 302.17 37.1894 302.037 37.1894C301.909 37.1894 301.848 37.1467 301.805 37.0756C301.753 36.9808 301.748 36.8527 301.748 36.663V35.6434H302.289V35.2783H301.748V34.6048H301.293V35.2783H300.961V35.6434H301.293V36.6725C301.293 37.1135 301.321 37.5783 301.886 37.5783C302.042 37.5783 302.18 37.5546 302.298 37.5024ZM303.216 34.5337C303.216 34.3725 303.093 34.2539 302.922 34.2539C302.747 34.2539 302.623 34.3725 302.623 34.5337C302.623 34.6949 302.747 34.8135 302.922 34.8135C303.093 34.8135 303.216 34.6949 303.216 34.5337ZM303.15 37.5261V35.2735H302.694V37.5261H303.15ZM305.755 37.5261V36.1935C305.755 35.6529 305.589 35.2308 304.949 35.2308C304.621 35.2308 304.38 35.4063 304.261 35.6292H304.247L304.251 35.2735H303.796V37.5261H304.251V36.3927C304.251 35.9612 304.408 35.6055 304.83 35.6055C305.233 35.6055 305.3 35.89 305.3 36.2694V37.5261H305.755ZM308.543 37.0519V35.2735H308.093L308.098 35.6292H308.083C307.951 35.4205 307.69 35.2308 307.296 35.2308C306.718 35.2308 306.21 35.6482 306.21 36.3642C306.21 37.0803 306.718 37.4977 307.296 37.4977C307.676 37.4977 307.932 37.3222 308.083 37.0946H308.093V37.2084C308.093 37.7395 307.879 38.0857 307.306 38.0857C306.969 38.0857 306.618 37.9055 306.499 37.8012L306.286 38.1189C306.352 38.1663 306.737 38.4556 307.291 38.4556C307.851 38.4556 308.131 38.228 308.297 38.0241C308.463 37.8249 308.543 37.5498 308.543 37.0519ZM308.107 36.3642C308.107 36.7911 307.856 37.1278 307.391 37.1278C306.931 37.1278 306.675 36.7911 306.675 36.3642C306.675 35.9374 306.931 35.596 307.391 35.596C307.856 35.596 308.107 35.9374 308.107 36.3642Z" fill="#303B45"/>
<path d="M353.312 36.4828C353.312 35.4679 352.563 34.8467 351.581 34.8467H350.595V38.1189H351.581C352.563 38.1189 353.312 37.4976 353.312 36.4828ZM352.843 36.4828C352.843 37.2368 352.321 37.7205 351.581 37.7205H351.055V35.2403H351.581C352.321 35.2403 352.843 35.7288 352.843 36.4828ZM355.857 36.9001C355.857 36.2694 355.416 35.8236 354.79 35.8236C354.164 35.8236 353.647 36.2789 353.647 36.9902C353.647 37.7063 354.107 38.1711 354.775 38.1711C355.449 38.1711 355.738 37.8391 355.767 37.8154L355.577 37.5546C355.525 37.5878 355.254 37.8154 354.832 37.8154C354.415 37.8154 354.13 37.5451 354.107 37.0993H355.842C355.842 37.0993 355.857 36.9855 355.857 36.9001ZM355.425 36.7958H354.111C354.126 36.5255 354.325 36.1508 354.775 36.1508C355.231 36.1508 355.42 36.5444 355.425 36.7958ZM356.783 38.1189V34.8467H356.332V38.1189H356.783ZM357.975 35.1265C357.975 34.9652 357.851 34.8467 357.681 34.8467C357.505 34.8467 357.382 34.9652 357.382 35.1265C357.382 35.2877 357.505 35.4063 357.681 35.4063C357.851 35.4063 357.975 35.2877 357.975 35.1265ZM357.908 38.1189V35.8663H357.453V38.1189H357.908ZM360.523 35.8663H360.053L359.389 37.564L358.721 35.8663H358.246L359.185 38.1189H359.584L360.523 35.8663ZM362.887 36.9001C362.887 36.2694 362.446 35.8236 361.82 35.8236C361.194 35.8236 360.677 36.2789 360.677 36.9902C360.677 37.7063 361.137 38.1711 361.806 38.1711C362.479 38.1711 362.768 37.8391 362.797 37.8154L362.607 37.5546C362.555 37.5878 362.285 37.8154 361.862 37.8154C361.445 37.8154 361.161 37.5451 361.137 37.0993H362.873C362.873 37.0993 362.887 36.9855 362.887 36.9001ZM362.455 36.7958H361.142C361.156 36.5255 361.355 36.1508 361.806 36.1508C362.261 36.1508 362.45 36.5444 362.455 36.7958ZM364.595 35.8615C364.595 35.8615 364.51 35.8236 364.358 35.8236C364.116 35.8236 363.913 35.9564 363.803 36.2125H363.789L363.794 35.8663H363.339V38.1189H363.794V36.995C363.794 36.6677 363.894 36.2362 364.301 36.2362C364.425 36.2362 364.505 36.2646 364.548 36.2836H364.567L364.595 35.8615ZM366.895 35.8663L366.426 35.8615L365.762 37.6162L365.079 35.8663L364.605 35.8615L365.52 38.0715L365.411 38.3702C365.349 38.5362 365.302 38.6358 365.117 38.6358C365.003 38.6358 364.88 38.5836 364.88 38.5836L364.79 38.9535C364.79 38.9535 364.965 39.0342 365.217 39.0342C365.468 39.0342 365.653 38.9014 365.809 38.5125L366.895 35.8663ZM369.237 38.0952L369.208 37.73C369.208 37.73 369.109 37.7822 368.976 37.7822C368.848 37.7822 368.786 37.7395 368.744 37.6684C368.691 37.5735 368.687 37.4455 368.687 37.2558V36.2362H369.227V35.871H368.687V35.1976H368.231V35.871H367.899V36.2362H368.231V37.2653C368.231 37.7063 368.26 38.1711 368.824 38.1711C368.981 38.1711 369.118 38.1474 369.237 38.0952ZM370.155 35.1265C370.155 34.9652 370.031 34.8467 369.861 34.8467C369.685 34.8467 369.562 34.9652 369.562 35.1265C369.562 35.2877 369.685 35.4063 369.861 35.4063C370.031 35.4063 370.155 35.2877 370.155 35.1265ZM370.088 38.1189V35.8663H369.633V38.1189H370.088ZM373.997 38.1189V36.7531C373.997 36.2646 373.836 35.8236 373.234 35.8236C372.916 35.8236 372.67 35.9848 372.518 36.2694C372.414 35.9754 372.181 35.8236 371.849 35.8236C371.55 35.8236 371.304 36.0133 371.199 36.222H371.185L371.19 35.8663H370.735V38.1189H371.19V36.9475C371.19 36.5444 371.37 36.1982 371.731 36.1982C372.058 36.1982 372.138 36.4733 372.138 36.8053V38.1189H372.594V36.9475C372.594 36.5444 372.774 36.1982 373.134 36.1982C373.5 36.1982 373.547 36.5444 373.547 36.8053V38.1189H373.997ZM376.665 36.9001C376.665 36.2694 376.224 35.8236 375.598 35.8236C374.972 35.8236 374.455 36.2789 374.455 36.9902C374.455 37.7063 374.915 38.1711 375.583 38.1711C376.257 38.1711 376.546 37.8391 376.574 37.8154L376.385 37.5546C376.333 37.5878 376.062 37.8154 375.64 37.8154C375.223 37.8154 374.938 37.5451 374.915 37.0993H376.65C376.65 37.0993 376.665 36.9855 376.665 36.9001ZM376.233 36.7958H374.919C374.934 36.5255 375.133 36.1508 375.583 36.1508C376.039 36.1508 376.228 36.5444 376.233 36.7958Z" fill="#303B45"/>
<path d="M21.1743 111.034V110.683H20.7356V108.652H20.2925L18.7967 110.722V111.034H20.3232V111.696H20.7356V111.034H21.1743ZM20.3276 110.687H19.2134L20.3276 109.152V110.687Z" fill="#303B45"/>
<path d="M20.9944 93.2848C20.9944 92.8155 20.6479 92.5874 20.411 92.5435V92.5303C20.5996 92.4689 20.9023 92.2935 20.9023 91.846C20.9023 91.3503 20.4505 91.0608 19.9548 91.0608C19.4591 91.0608 19.1959 91.2714 18.9985 91.4907L19.1959 91.7451C19.3977 91.5477 19.6126 91.3986 19.9197 91.3986C20.2267 91.3986 20.4899 91.5697 20.4899 91.8899C20.4899 92.2057 20.2662 92.3812 19.946 92.3812H19.7223V92.719H19.946C20.2925 92.719 20.5733 92.9032 20.5733 93.2673C20.5733 93.6314 20.2882 93.8288 19.8934 93.8288C19.4986 93.8288 19.2046 93.4647 19.1564 93.4033L18.9195 93.6621C18.9634 93.7191 19.2924 94.1753 19.9021 94.1753C20.5163 94.1753 20.9944 93.8376 20.9944 93.2848Z" fill="#303B45"/>
<path d="M21.069 75.7305V75.3795H19.5249L20.3013 74.6382C20.4899 74.4627 20.9418 74.0855 20.9418 73.5503C20.9418 73.0151 20.5338 72.6598 19.9284 72.6598C19.3275 72.6598 19.0204 73.059 18.9371 73.2432L19.1608 73.4933C19.2836 73.2915 19.5205 73.0063 19.9021 73.0063C20.2882 73.0063 20.525 73.252 20.525 73.5942C20.525 73.9319 20.2662 74.2083 20.0337 74.432L18.9634 75.4453L19.0248 75.7305H21.069Z" fill="#303B45"/>
<path d="M19.9679 57.3296V54.3028H18.9634V54.6142H19.5556V57.3296H19.9679Z" fill="#303B45"/>
<path d="M21.3118 130.589C21.3118 129.927 20.7722 129.598 20.2809 129.598C20.1142 129.598 19.9695 129.624 19.851 129.677L20.0089 128.874H21.224V128.532H19.7019L19.4387 129.953L19.6536 130.08C19.7721 129.975 19.9914 129.918 20.1888 129.918C20.5353 129.918 20.8907 130.129 20.8907 130.589C20.8907 131.05 20.5309 131.26 20.1888 131.26C19.851 131.26 19.5659 131.08 19.4343 130.857L19.1974 131.102C19.3071 131.295 19.6229 131.611 20.1932 131.611C20.7634 131.611 21.3118 131.252 21.3118 130.589Z" fill="#303B45"/>
<path d="M21.3863 149.536C21.3863 148.957 20.9345 148.606 20.4564 148.606C19.9782 148.606 19.7457 148.839 19.6361 149.036C19.6361 148.51 19.8028 147.791 20.452 147.791C20.7152 147.791 20.9389 147.896 21.1231 148.049L21.303 147.764C21.1889 147.681 20.917 147.457 20.452 147.457C19.5483 147.457 19.2281 148.286 19.2281 149.071C19.2281 149.598 19.3378 149.892 19.4387 150.058C19.5352 150.221 19.7896 150.58 20.3555 150.58C20.9915 150.58 21.3863 150.12 21.3863 149.536ZM20.974 149.58C20.974 149.922 20.7634 150.243 20.3467 150.243C19.9344 150.243 19.7106 149.922 19.7106 149.58C19.7106 149.238 19.93 148.918 20.3423 148.918C20.7591 148.918 20.974 149.238 20.974 149.58Z" fill="#303B45"/>
<path d="M21.439 166.123L21.3249 165.878H19.2632V166.22H20.9652L19.5352 168.905H19.9826L21.439 166.123Z" fill="#303B45"/>
<path d="M21.3293 188.222C21.3293 187.84 21.0968 187.577 20.7634 187.467V187.458C20.9608 187.379 21.2328 187.217 21.2328 186.774C21.2328 186.274 20.7941 185.989 20.2853 185.989C19.7764 185.989 19.3378 186.274 19.3378 186.774C19.3378 187.217 19.6141 187.379 19.8115 187.454V187.467C19.4738 187.572 19.2457 187.84 19.2457 188.222C19.2457 188.792 19.6887 189.108 20.2853 189.108C20.8819 189.108 21.3293 188.792 21.3293 188.222ZM20.8205 186.813C20.8205 187.134 20.588 187.305 20.2853 187.305C19.9826 187.305 19.7501 187.134 19.7501 186.813C19.7501 186.498 19.9826 186.322 20.2853 186.322C20.588 186.322 20.8205 186.498 20.8205 186.813ZM20.9082 188.191C20.9082 188.551 20.6275 188.766 20.2853 188.766C19.9475 188.766 19.6624 188.551 19.6624 188.191C19.6624 187.831 19.93 187.616 20.2853 187.616C20.6406 187.616 20.9082 187.831 20.9082 188.191Z" fill="#303B45"/>
<path d="M21.3425 207.06C21.3425 206.547 21.2328 206.235 21.1319 206.073C21.0223 205.893 20.7634 205.551 20.2151 205.551C19.579 205.551 19.1842 206.012 19.1842 206.595C19.1842 207.174 19.6405 207.525 20.1142 207.525C20.5924 207.525 20.8336 207.284 20.9345 207.077C20.9345 207.604 20.781 208.332 20.123 208.332C19.8115 208.332 19.5571 208.196 19.4343 208.082L19.2544 208.363C19.3334 208.429 19.6054 208.674 20.1318 208.674C21.0223 208.674 21.3425 207.828 21.3425 207.06ZM20.8599 206.542C20.8599 206.884 20.645 207.205 20.2239 207.205C19.8071 207.205 19.5966 206.884 19.5966 206.542C19.5966 206.2 19.8071 205.88 20.2239 205.88C20.645 205.88 20.8599 206.2 20.8599 206.542Z" fill="#303B45"/>
<path d="M20.2765 227.591V224.564H19.272V224.876H19.8642V227.591H20.2765ZM23.354 226.082C23.354 225.292 23.0118 224.52 22.1959 224.52C21.3844 224.52 21.0378 225.292 21.0378 226.082C21.0378 226.867 21.38 227.639 22.1959 227.639C23.0118 227.639 23.354 226.867 23.354 226.082ZM22.9241 226.073C22.9241 226.762 22.6828 227.266 22.1959 227.266C21.709 227.266 21.4677 226.762 21.4677 226.073C21.4677 225.38 21.709 224.88 22.1959 224.88C22.6828 224.88 22.9241 225.38 22.9241 226.073Z" fill="#303B45"/>
<path d="M20.2765 247.153V244.126H19.272V244.438H19.8642V247.153H20.2765ZM22.1871 247.153V244.126H21.1826V244.438H21.7748V247.153H22.1871Z" fill="#303B45"/>
<rect x="37.4922" y="129.151" width="25.4901" height="2.96396" rx="1.48198" fill="#99AEC1"/>
<rect x="37.4922" y="148.121" width="18.9694" height="2.96396" rx="1.48198" fill="#99AEC1"/>
<rect x="37.4922" y="167.09" width="32.6036" height="2.96396" rx="1.48198" fill="#99AEC1"/>
<rect x="37.4922" y="186.652" width="18.9694" height="2.96396" rx="1.48198" fill="#99AEC1"/>
<rect x="37.4922" y="206.214" width="19.5622" height="2.96396" rx="1.48198" fill="#99AEC1"/>
<rect x="37.4922" y="225.184" width="25.4901" height="2.96396" rx="1.48198" fill="#99AEC1"/>
<rect x="37.4922" y="109.589" width="25.4901" height="2.96396" rx="1.48198" fill="#99AEC1"/>
<rect x="37.4922" y="91.2126" width="25.4901" height="2.96396" rx="1.48198" fill="#99AEC1"/>
<rect x="37.4922" y="72.8361" width="25.4901" height="2.96396" rx="1.48198" fill="#99AEC1"/>
<rect x="37.4922" y="54.4595" width="25.4901" height="2.96396" rx="1.48198" fill="#99AEC1"/>
<rect x="37.4922" y="244.746" width="18.9694" height="2.96396" rx="1.48198" fill="#99AEC1"/>
<rect x="89.0625" y="129.151" width="58.6865" height="2.96396" rx="1.48198" fill="#99AEC1"/>
<rect x="89.0625" y="148.121" width="69.3567" height="2.96396" rx="1.48198" fill="#99AEC1"/>
<rect x="89.0625" y="167.09" width="40.9027" height="2.96396" rx="1.48198" fill="#99AEC1"/>
<rect x="89.0625" y="186.652" width="40.9027" height="2.96396" rx="1.48198" fill="#99AEC1"/>
<rect x="89.0625" y="206.214" width="52.7585" height="2.96396" rx="1.48198" fill="#99AEC1"/>
<rect x="89.0625" y="225.184" width="64.6144" height="2.96396" rx="1.48198" fill="#99AEC1"/>
<rect x="89.0625" y="109.589" width="64.6144" height="2.96396" rx="1.48198" fill="#99AEC1"/>
<rect x="89.0625" y="91.2126" width="50.9802" height="2.96396" rx="1.48198" fill="#99AEC1"/>
<rect x="89.0625" y="72.8361" width="76.4702" height="2.96396" rx="1.48198" fill="#99AEC1"/>
<rect x="89.0625" y="54.4595" width="73.5063" height="2.96396" rx="1.48198" fill="#99AEC1"/>
<rect x="89.0625" y="244.746" width="58.6865" height="2.96396" rx="1.48198" fill="#99AEC1"/>
<rect x="191.023" y="129.151" width="51.573" height="2.96396" rx="1.48198" fill="#99AEC1"/>
<rect x="191.023" y="148.121" width="39.1243" height="2.96396" rx="1.48198" fill="#99AEC1"/>
<rect x="191.023" y="167.09" width="48.609" height="2.96396" rx="1.48198" fill="#99AEC1"/>
<rect x="191.023" y="186.652" width="33.7892" height="2.96396" rx="1.48198" fill="#99AEC1"/>
<rect x="191.023" y="206.214" width="42.0883" height="2.96396" rx="1.48198" fill="#99AEC1"/>
<rect x="191.023" y="225.184" width="48.609" height="2.96396" rx="1.48198" fill="#99AEC1"/>
<rect x="191.023" y="109.589" width="48.609" height="2.96396" rx="1.48198" fill="#99AEC1"/>
<rect x="191.023" y="91.2126" width="65.2072" height="2.96396" rx="1.48198" fill="#99AEC1"/>
<rect x="191.023" y="72.8361" width="37.3459" height="2.96396" rx="1.48198" fill="#99AEC1"/>
<rect x="191.023" y="54.4595" width="65.2072" height="2.96396" rx="1.48198" fill="#99AEC1"/>
<rect x="191.023" y="244.746" width="33.7892" height="2.96396" rx="1.48198" fill="#99AEC1"/>
<rect x="351.672" y="129.151" width="17.7838" height="2.96396" rx="1.48198" fill="#99AEC1"/>
<rect x="351.672" y="148.121" width="12.4486" height="2.96396" rx="1.48198" fill="#99AEC1"/>
<rect x="351.672" y="167.09" width="24.8973" height="2.96396" rx="1.48198" fill="#99AEC1"/>
<rect x="351.672" y="186.652" width="20.7477" height="2.96396" rx="1.48198" fill="#99AEC1"/>
<rect x="351.672" y="206.214" width="30.8252" height="2.96396" rx="1.48198" fill="#99AEC1"/>
<rect x="351.672" y="225.184" width="17.7838" height="2.96396" rx="1.48198" fill="#99AEC1"/>
<rect x="351.672" y="244.746" width="27.8613" height="2.96396" rx="1.48198" fill="#99AEC1"/>
<rect x="295.945" y="129.151" width="23.7117" height="2.96396" rx="1.48198" fill="#99AEC1"/>
<rect x="295.945" y="148.121" width="17.7838" height="2.96396" rx="1.48198" fill="#99AEC1"/>
<rect x="295.945" y="167.09" width="12.4486" height="2.96396" rx="1.48198" fill="#99AEC1"/>
<rect x="295.945" y="186.652" width="17.7838" height="2.96396" rx="1.48198" fill="#99AEC1"/>
<rect x="295.945" y="206.214" width="12.4486" height="2.96396" rx="1.48198" fill="#99AEC1"/>
<rect x="295.945" y="225.184" width="17.7838" height="2.96396" rx="1.48198" fill="#99AEC1"/>
<rect x="295.945" y="109.589" width="26.0829" height="2.96396" rx="1.48198" fill="#99AEC1"/>
<rect x="295.945" y="91.2126" width="17.7838" height="2.96396" rx="1.48198" fill="#99AEC1"/>
<rect x="295.945" y="72.8361" width="23.7117" height="2.96396" rx="1.48198" fill="#99AEC1"/>
<rect x="295.945" y="54.4595" width="17.7838" height="2.96396" rx="1.48198" fill="#99AEC1"/>
<rect x="351.672" y="109.589" width="17.7838" height="2.96396" rx="1.48198" fill="#99AEC1"/>
<rect x="351.672" y="91.2126" width="17.7838" height="2.96396" rx="1.48198" fill="#99AEC1"/>
<rect x="351.672" y="72.8361" width="20.7477" height="2.96396" rx="1.48198" fill="#99AEC1"/>
<rect x="351.672" y="54.4595" width="17.7838" height="2.96396" rx="1.48198" fill="#99AEC1"/>
<rect x="295.945" y="244.746" width="9.48468" height="2.96396" rx="1.48198" fill="#99AEC1"/>
</g>
<g filter="url(#filter1_dd_36438_199755)">
<rect x="111" y="101" width="199" height="55" rx="6.51928" fill="white"/>
<path d="M135.86 135.376L135.918 137H139.485V128.967C139.485 126.589 138.963 125.313 137.948 124.327C136.904 123.341 135.483 122.703 132.989 122.703C130.553 122.703 128.581 123.544 127.508 124.182L128.639 126.56C129.248 126.096 130.785 125.4 132.641 125.4C134.584 125.4 135.773 126.241 135.773 128.039V128.416L132.409 128.648C129.509 128.851 126.638 129.982 126.638 132.911C126.638 135.84 128.842 137.319 131.568 137.319C133.656 137.319 135.28 136.391 135.86 135.376ZM133.279 130.823L135.802 130.678V133.259C135.309 133.955 134.236 134.796 132.786 134.796C131.249 134.796 130.35 133.984 130.35 132.795C130.35 131.606 131.307 130.939 133.279 130.823ZM160.412 129.141V137H164.124V128.532C164.124 125.313 163.109 122.703 159.426 122.703C157.396 122.703 155.801 123.66 154.815 125.371C154.148 123.515 152.93 122.703 150.9 122.703C149.073 122.703 147.362 123.776 146.724 125.081H146.637L146.666 122.964H142.954V137H146.666V129.75C146.666 127.546 147.507 125.748 149.421 125.748C151.19 125.748 151.683 127.198 151.683 129.112V137H155.395V129.75C155.395 127.343 156.352 125.748 158.208 125.748C160.035 125.748 160.412 127.43 160.412 129.141ZM175.89 135.376L175.948 137H179.515V128.967C179.515 126.589 178.993 125.313 177.978 124.327C176.934 123.341 175.513 122.703 173.019 122.703C170.583 122.703 168.611 123.544 167.538 124.182L168.669 126.56C169.278 126.096 170.815 125.4 172.671 125.4C174.614 125.4 175.803 126.241 175.803 128.039V128.416L172.439 128.648C169.539 128.851 166.668 129.982 166.668 132.911C166.668 135.84 168.872 137.319 171.598 137.319C173.686 137.319 175.31 136.391 175.89 135.376ZM173.309 130.823L175.832 130.678V133.259C175.339 133.955 174.266 134.796 172.816 134.796C171.279 134.796 170.38 133.984 170.38 132.795C170.38 131.606 171.337 130.939 173.309 130.823ZM181.853 134.825V137H194.468V134.042H186.58L194.091 125.139V122.993H182.23V125.893H189.451L181.853 134.825ZM203.823 137.319C208.115 137.319 211.421 134.477 211.421 130.04C211.421 125.603 208.115 122.703 203.823 122.703C199.502 122.703 196.196 125.603 196.196 130.04C196.196 134.477 199.502 137.319 203.823 137.319ZM207.593 129.953C207.593 132.36 206.201 134.245 203.823 134.245C201.387 134.245 200.053 132.36 200.053 129.953C200.053 127.546 201.387 125.69 203.823 125.69C206.201 125.69 207.593 127.546 207.593 129.953ZM223.573 129.489V137H227.285V128.677C227.285 125.313 226.27 122.703 222.239 122.703C220.209 122.703 218.788 123.602 218.034 125.081H217.947L217.976 122.964H214.264V137H217.976V130.011C217.976 127.662 218.759 125.748 221.05 125.748C223.196 125.748 223.573 127.401 223.573 129.489Z" fill="black"/>
<path d="M233.765 137.319C235.099 137.319 236.085 136.507 236.085 135.173C236.085 133.81 235.099 132.998 233.765 132.998C232.373 132.998 231.416 133.81 231.416 135.173C231.416 136.507 232.373 137.319 233.765 137.319ZM251.12 132.708L252.164 135.434C251.874 135.695 250.424 137.319 246.683 137.319C242.855 137.319 239.317 134.68 239.317 130.098C239.317 125.487 242.971 122.703 246.741 122.703C250.279 122.703 251.671 124.124 252.048 124.501L251.033 127.285C250.598 126.879 249.351 125.806 247.176 125.806C244.972 125.806 243.203 127.343 243.203 129.924C243.203 132.505 244.972 134.187 247.379 134.187C249.786 134.187 251.12 132.708 251.12 132.708ZM261.199 137.319C265.491 137.319 268.797 134.477 268.797 130.04C268.797 125.603 265.491 122.703 261.199 122.703C256.878 122.703 253.572 125.603 253.572 130.04C253.572 134.477 256.878 137.319 261.199 137.319ZM264.969 129.953C264.969 132.36 263.577 134.245 261.199 134.245C258.763 134.245 257.429 132.36 257.429 129.953C257.429 127.546 258.763 125.69 261.199 125.69C263.577 125.69 264.969 127.546 264.969 129.953ZM289.097 129.141V137H292.809V128.532C292.809 125.313 291.794 122.703 288.111 122.703C286.081 122.703 284.486 123.66 283.5 125.371C282.833 123.515 281.615 122.703 279.585 122.703C277.758 122.703 276.047 123.776 275.409 125.081H275.322L275.351 122.964H271.639V137H275.351V129.75C275.351 127.546 276.192 125.748 278.106 125.748C279.875 125.748 280.368 127.198 280.368 129.112V137H284.08V129.75C284.08 127.343 285.037 125.748 286.893 125.748C288.72 125.748 289.097 127.43 289.097 129.141Z" fill="#FF9900"/>
</g>
<path d="M91.795 189.633L98.8125 196.651L96.1809 199.282L89.1635 192.265L91.795 189.633Z" fill="#C6DBFF"/>
<path d="M88.2789 191.421L97.0508 200.193L74.244 222.999L65.4721 214.228L88.2789 191.421Z" fill="#091B36"/>
<path d="M88.2775 191.412L90.0312 193.167L67.2165 215.966L65.4627 214.211L88.2775 191.412Z" fill="#091B36"/>
<path d="M71.6016 225.642L68.9717 228.272C67.8085 229.435 66.2311 230.088 64.5864 230.088C62.9417 230.088 61.3643 229.435 60.2011 228.272C59.0383 227.109 58.3851 225.532 58.3851 223.887C58.3851 222.242 59.0383 220.665 60.2011 219.502L62.831 216.872L71.6016 225.642Z" fill="#091B36"/>
<path d="M65.4703 214.236L74.2422 223.008L71.6106 225.639L62.8388 216.868L65.4703 214.236Z" fill="#091B36"/>
<path d="M136.966 151.415C140.783 155.232 143.383 160.095 144.436 165.389C145.49 170.683 144.949 176.171 142.884 181.158C140.818 186.145 137.32 190.408 132.832 193.407C128.344 196.406 123.067 198.007 117.669 198.007C112.271 198.007 106.995 196.406 102.506 193.407C98.0182 190.408 94.5202 186.145 92.4547 181.158C90.3892 176.171 89.849 170.683 90.9025 165.389C91.9559 160.095 94.5556 155.232 98.3729 151.415C103.491 146.298 110.432 143.423 117.669 143.423C124.907 143.423 131.848 146.298 136.966 151.415ZM99.2537 189.127C102.896 192.772 107.538 195.255 112.592 196.261C117.646 197.267 122.885 196.752 127.646 194.781C132.407 192.81 136.476 189.471 139.339 185.186C142.203 180.902 143.731 175.865 143.731 170.712C143.731 165.559 142.203 160.521 139.339 156.237C136.476 151.952 132.407 148.613 127.646 146.642C122.885 144.671 117.646 144.156 112.592 145.162C107.538 146.169 102.896 148.651 99.2537 152.296C94.3796 157.189 91.6481 163.818 91.6598 170.724C91.6714 177.631 94.4251 184.25 99.3157 189.127H99.2537Z" fill="#3D7FFC"/>
<path d="M140.538 147.905C145.048 152.416 148.12 158.163 149.365 164.419C150.609 170.676 149.97 177.161 147.529 183.055C145.088 188.948 140.954 193.985 135.65 197.53C130.346 201.074 124.11 202.965 117.731 202.965C111.352 202.965 105.116 201.074 99.8115 197.53C94.5075 193.985 90.3734 188.948 87.9322 183.055C85.491 177.161 84.8522 170.676 86.0967 164.419C87.3411 158.163 90.4129 152.416 94.9236 147.905C97.9186 144.91 101.474 142.534 105.388 140.913C109.301 139.292 113.495 138.458 117.731 138.458C121.966 138.458 126.161 139.292 130.074 140.913C133.987 142.534 137.543 144.91 140.538 147.905ZM99.315 189.128C102.958 192.772 107.6 195.255 112.653 196.261C117.707 197.268 122.946 196.753 127.707 194.782C132.468 192.81 136.538 189.471 139.401 185.187C142.264 180.902 143.792 175.865 143.792 170.712C143.792 165.559 142.264 160.522 139.401 156.237C136.538 151.953 132.468 148.614 127.707 146.643C122.946 144.671 117.707 144.156 112.653 145.163C107.6 146.169 102.958 148.652 99.315 152.296C94.4327 157.182 91.6901 163.805 91.6901 170.712C91.6901 177.619 94.4327 184.243 99.315 189.128Z" fill="#3D7FFC"/>
<defs>
<filter id="filter0_dd_36438_199755" x="0" y="0" width="423.543" height="268.23" filterUnits="userSpaceOnUse" color-interpolation-filters="sRGB">
<feFlood flood-opacity="0" result="BackgroundImageFix"/>
<feColorMatrix in="SourceAlpha" type="matrix" values="0 0 0 0 0 0 0 0 0 0 0 0 0 0 0 0 0 0 127 0" result="hardAlpha"/>
<feOffset dy="4"/>
<feGaussianBlur stdDeviation="5"/>
<feColorMatrix type="matrix" values="0 0 0 0 0 0 0 0 0 0.00643939 0 0 0 0 0.0125 0 0 0 0.1 0"/>
<feBlend mode="normal" in2="BackgroundImageFix" result="effect1_dropShadow_36438_199755"/>
<feColorMatrix in="SourceAlpha" type="matrix" values="0 0 0 0 0 0 0 0 0 0 0 0 0 0 0 0 0 0 127 0" result="hardAlpha"/>
<feOffset dy="2"/>
<feGaussianBlur stdDeviation="6"/>
<feColorMatrix type="matrix" values="0 0 0 0 0.0483333 0 0 0 0 0.168978 0 0 0 0 0.4 0 0 0 0.25 0"/>
<feBlend mode="normal" in2="effect1_dropShadow_36438_199755" result="effect2_dropShadow_36438_199755"/>
<feBlend mode="normal" in="SourceGraphic" in2="effect2_dropShadow_36438_199755" result="shape"/>
</filter>
<filter id="filter1_dd_36438_199755" x="92" y="91" width="237" height="93" filterUnits="userSpaceOnUse" color-interpolation-filters="sRGB">
<feFlood flood-opacity="0" result="BackgroundImageFix"/>
<feColorMatrix in="SourceAlpha" type="matrix" values="0 0 0 0 0 0 0 0 0 0 0 0 0 0 0 0 0 0 127 0" result="hardAlpha"/>
<feOffset dy="9"/>
<feGaussianBlur stdDeviation="9.5"/>
<feColorMatrix type="matrix" values="0 0 0 0 0.0584375 0 0 0 0 0.240833 0 0 0 0 0.4125 0 0 0 0.2 0"/>
<feBlend mode="normal" in2="BackgroundImageFix" result="effect1_dropShadow_36438_199755"/>
<feColorMatrix in="SourceAlpha" type="matrix" values="0 0 0 0 0 0 0 0 0 0 0 0 0 0 0 0 0 0 127 0" result="hardAlpha"/>
<feOffset dy="2"/>
<feGaussianBlur stdDeviation="6"/>
<feColorMatrix type="matrix" values="0 0 0 0 0.209115 0 0 0 0 0.373232 0 0 0 0 0.6875 0 0 0 0.09 0"/>
<feBlend mode="normal" in2="effect1_dropShadow_36438_199755" result="effect2_dropShadow_36438_199755"/>
<feBlend mode="normal" in="SourceGraphic" in2="effect2_dropShadow_36438_199755" result="shape"/>
</filter>
</defs>
</svg>
